REM DIRINDEX 1\2,1\3,1\4,1\5
REM DIRNAME cjc087,folder01,folder02,folder03,folder04
TITLE ""
FILE "Chapter_20.mp3" MP3
  TRACK 01 AUDIO
    TITLE "0:"
    INDEX 01 00:00:00
  TRACK 02 AUDIO
    TITLE "5:cjc087_6244"
    INDEX 01 00:00:09
  TRACK 03 AUDIO
    TITLE "0:"
    INDEX 01 00:01:71
  TRACK 04 AUDIO
    TITLE "5:cjc087_6245"
    INDEX 01 00:03:39
  TRACK 05 AUDIO
    TITLE "0:"
    INDEX 01 00:05:42
  TRACK 06 AUDIO
    TITLE "4:cjc087_6246"
    INDEX 01 00:06:47
  TRACK 07 AUDIO
    TITLE "3:cjc087_6247"
    INDEX 01 00:08:19
  TRACK 08 AUDIO
    TITLE "0:"
    INDEX 01 00:10:29
  TRACK 09 AUDIO
    TITLE "4:cjc087_6248"
    INDEX 01 00:11:35
  TRACK 10 AUDIO
    TITLE "3:cjc087_6249"
    INDEX 01 00:13:67
  TRACK 11 AUDIO
    TITLE "0:"
    INDEX 01 00:16:28
  TRACK 12 AUDIO
    TITLE "4:cjc087_6250"
    INDEX 01 00:17:31
  TRACK 13 AUDIO
    TITLE "3:cjc087_6251"
    INDEX 01 00:19:40
  TRACK 14 AUDIO
    TITLE "0:"
    INDEX 01 00:21:60
  TRACK 15 AUDIO
    TITLE "4:cjc087_6252"
    INDEX 01 00:22:64
  TRACK 16 AUDIO
    TITLE "3:cjc087_6253"
    INDEX 01 00:24:61
  TRACK 17 AUDIO
    TITLE "0:"
    INDEX 01 00:28:25
  TRACK 18 AUDIO
    TITLE "4:cjc087_6254"
    INDEX 01 00:29:29
  TRACK 19 AUDIO
    TITLE "3:cjc087_6255"
    INDEX 01 00:31:61
  TRACK 20 AUDIO
    TITLE "0:"
    INDEX 01 00:34:16
  TRACK 21 AUDIO
    TITLE "4:cjc087_6256"
    INDEX 01 00:35:21
  TRACK 22 AUDIO
    TITLE "3:cjc087_6257"
    INDEX 01 00:37:14
  TRACK 23 AUDIO
    TITLE "0:"
    INDEX 01 00:39:41
  TRACK 24 AUDIO
    TITLE "4:cjc087_6258"
    INDEX 01 00:40:46
  TRACK 25 AUDIO
    TITLE "3:cjc087_6259"
    INDEX 01 00:43:42
  TRACK 26 AUDIO
    TITLE "0:"
    INDEX 01 00:46:58
  TRACK 27 AUDIO
    TITLE "5:cjc087_6260"
    INDEX 01 00:48:26
  TRACK 28 AUDIO
    TITLE "0:"
    INDEX 01 00:50:19
  TRACK 29 AUDIO
    TITLE "4:cjc087_6261"
    INDEX 01 00:51:22
  TRACK 30 AUDIO
    TITLE "3:cjc087_6262"
    INDEX 01 00:54:32
  TRACK 31 AUDIO
    TITLE "0:"
    INDEX 01 00:57:64
  TRACK 32 AUDIO
    TITLE "4:cjc087_6263"
    INDEX 01 00:58:71
  TRACK 33 AUDIO
    TITLE "3:cjc087_6264"
    INDEX 01 01:00:43
  TRACK 34 AUDIO
    TITLE "0:"
    INDEX 01 01:02:67
  TRACK 35 AUDIO
    TITLE "4:cjc087_6265"
    INDEX 01 01:03:71
  TRACK 36 AUDIO
    TITLE "3:cjc087_6266"
    INDEX 01 01:06:28
  TRACK 37 AUDIO
    TITLE "0:"
    INDEX 01 01:09:67
  TRACK 38 AUDIO
    TITLE "4:cjc087_6267"
    INDEX 01 01:10:73
  TRACK 39 AUDIO
    TITLE "3:cjc087_6268"
    INDEX 01 01:13:28
  TRACK 40 AUDIO
    TITLE "0:"
    INDEX 01 01:16:03
  TRACK 41 AUDIO
    TITLE "4:cjc087_6269"
    INDEX 01 01:17:08
  TRACK 42 AUDIO
    TITLE "3:cjc087_6270"
    INDEX 01 01:19:28
  TRACK 43 AUDIO
    TITLE "0:"
    INDEX 01 01:21:65
  TRACK 44 AUDIO
    TITLE "4:cjc087_6271"
    INDEX 01 01:22:70
  TRACK 45 AUDIO
    TITLE "3:cjc087_6272"
    INDEX 01 01:25:58
  TRACK 46 AUDIO
    TITLE "0:"
    INDEX 01 01:28:37
  TRACK 47 AUDIO
    TITLE "5:cjc087_6273"
    INDEX 01 01:30:05
  TRACK 48 AUDIO
    TITLE "0:"
    INDEX 01 01:32:17
  TRACK 49 AUDIO
    TITLE "4:cjc087_6274"
    INDEX 01 01:33:23
  TRACK 50 AUDIO
    TITLE "3:cjc087_6275"
    INDEX 01 01:35:37
  TRACK 51 AUDIO
    TITLE "0:"
    INDEX 01 01:37:62
  TRACK 52 AUDIO
    TITLE "4:cjc087_6276"
    INDEX 01 01:38:73
  TRACK 53 AUDIO
    TITLE "3:cjc087_6277"
    INDEX 01 01:40:31
  TRACK 54 AUDIO
    TITLE "0:"
    INDEX 01 01:42:20
  TRACK 55 AUDIO
    TITLE "4:cjc087_6278"
    INDEX 01 01:43:33
  TRACK 56 AUDIO
    TITLE "3:cjc087_6279"
    INDEX 01 01:45:57
  TRACK 57 AUDIO
    TITLE "0:"
    INDEX 01 01:48:54
  TRACK 58 AUDIO
    TITLE "4:cjc087_6280"
    INDEX 01 01:49:55
  TRACK 59 AUDIO
    TITLE "3:cjc087_6281"
    INDEX 01 01:51:28
  TRACK 60 AUDIO
    TITLE "0:"
    INDEX 01 01:53:63
  TRACK 61 AUDIO
    TITLE "4:cjc087_6282"
    INDEX 01 01:54:66
  TRACK 62 AUDIO
    TITLE "3:cjc087_6283"
    INDEX 01 01:56:37
  TRACK 63 AUDIO
    TITLE "0:"
    INDEX 01 01:58:27
  TRACK 64 AUDIO
    TITLE "4:cjc087_6284"
    INDEX 01 01:59:30
  TRACK 65 AUDIO
    TITLE "3:cjc087_6285"
    INDEX 01 02:01:33
  TRACK 66 AUDIO
    TITLE "0:"
    INDEX 01 02:03:12
  TRACK 67 AUDIO
    TITLE "4:cjc087_6286"
    INDEX 01 02:04:15
  TRACK 68 AUDIO
    TITLE "3:cjc087_6287"
    INDEX 01 02:05:58
  TRACK 69 AUDIO
    TITLE "0:"
    INDEX 01 02:07:63
  TRACK 70 AUDIO
    TITLE "5:cjc087_6288"
    INDEX 01 02:09:50
  TRACK 71 AUDIO
    TITLE "0:"
    INDEX 01 02:11:57
  TRACK 72 AUDIO
    TITLE "3:cjc087_6289"
    INDEX 01 02:12:60
  TRACK 73 AUDIO
    TITLE "4:cjc087_6290"
    INDEX 01 02:14:49
  TRACK 74 AUDIO
    TITLE "0:"
    INDEX 01 02:16:68
  TRACK 75 AUDIO
    TITLE "3:cjc087_6291"
    INDEX 01 02:17:69
  TRACK 76 AUDIO
    TITLE "4:cjc087_6292"
    INDEX 01 02:20:44
  TRACK 77 AUDIO
    TITLE "0:"
    INDEX 01 02:22:29
  TRACK 78 AUDIO
    TITLE "3:cjc087_6293"
    INDEX 01 02:23:34
  TRACK 79 AUDIO
    TITLE "4:cjc087_6294"
    INDEX 01 02:26:07
  TRACK 80 AUDIO
    TITLE "0:"
    INDEX 01 02:28:43
  TRACK 81 AUDIO
    TITLE "3:cjc087_6295"
    INDEX 01 02:29:47
  TRACK 82 AUDIO
    TITLE "4:cjc087_6296"
    INDEX 01 02:31:50
  TRACK 83 AUDIO
    TITLE "0:"
    INDEX 01 02:33:41
  TRACK 84 AUDIO
    TITLE "3:cjc087_6297"
    INDEX 01 02:34:42
  TRACK 85 AUDIO
    TITLE "4:cjc087_6298"
    INDEX 01 02:38:26
  TRACK 86 AUDIO
    TITLE "0:"
    INDEX 01 02:40:29
  TRACK 87 AUDIO
    TITLE "3:cjc087_6299"
    INDEX 01 02:41:34
  TRACK 88 AUDIO
    TITLE "4:cjc087_6300"
    INDEX 01 02:44:27
  TRACK 89 AUDIO
    TITLE "0:"
    INDEX 01 02:46:45
  TRACK 90 AUDIO
    TITLE "3:cjc087_6301"
    INDEX 01 02:47:49
  TRACK 91 AUDIO
    TITLE "4:cjc087_6302"
    INDEX 01 02:50:47
  TRACK 92 AUDIO
    TITLE "0:"
    INDEX 01 02:53:14
  TRACK 93 AUDIO
    TITLE "3:cjc087_6303"
    INDEX 01 02:54:19
  TRACK 94 AUDIO
    TITLE "4:cjc087_6304"
    INDEX 01 02:57:00
  TRACK 95 AUDIO
    TITLE "0:"
    INDEX 01 02:59:09
  TRACK 96 AUDIO
    TITLE "2:cjc087_6305"
    INDEX 01 03:00:49
  TRACK 97 AUDIO
    TITLE "0:"
    INDEX 01 03:12:09
  TRACK 98 AUDIO
    TITLE "5:cjc087_6306"
    INDEX 01 03:13:56
  TRACK 99 AUDIO
    TITLE "0:"
    INDEX 01 03:15:68
  TRACK 100 AUDIO
    TITLE "4:cjc087_6307"
    INDEX 01 03:16:72
  TRACK 101 AUDIO
    TITLE "3:cjc087_6308"
    INDEX 01 03:19:19
  TRACK 102 AUDIO
    TITLE "0:"
    INDEX 01 03:22:12
  TRACK 103 AUDIO
    TITLE "4:cjc087_6309"
    INDEX 01 03:23:15
  TRACK 104 AUDIO
    TITLE "3:cjc087_6310"
    INDEX 01 03:25:08
  TRACK 105 AUDIO
    TITLE "0:"
    INDEX 01 03:26:62
  TRACK 106 AUDIO
    TITLE "4:cjc087_6311"
    INDEX 01 03:27:60
  TRACK 107 AUDIO
    TITLE "3:cjc087_6312"
    INDEX 01 03:33:31
  TRACK 108 AUDIO
    TITLE "0:"
    INDEX 01 03:38:05
  TRACK 109 AUDIO
    TITLE "4:cjc087_6313"
    INDEX 01 03:39:08
  TRACK 110 AUDIO
    TITLE "3:cjc087_6314"
    INDEX 01 03:40:64
  TRACK 111 AUDIO
    TITLE "0:"
    INDEX 01 03:43:14
  TRACK 112 AUDIO
    TITLE "4:cjc087_6315"
    INDEX 01 03:44:19
  TRACK 113 AUDIO
    TITLE "3:cjc087_6316"
    INDEX 01 03:46:16
  TRACK 114 AUDIO
    TITLE "0:"
    INDEX 01 03:48:05
  TRACK 115 AUDIO
    TITLE "4:cjc087_6317"
    INDEX 01 03:49:07
  TRACK 116 AUDIO
    TITLE "3:cjc087_6318"
    INDEX 01 03:51:13
  TRACK 117 AUDIO
    TITLE "0:"
    INDEX 01 03:53:26
  TRACK 118 AUDIO
    TITLE "4:cjc087_6319"
    INDEX 01 03:54:31
  TRACK 119 AUDIO
    TITLE "3:cjc087_6320"
    INDEX 01 03:57:02
  TRACK 120 AUDIO
    TITLE "0:"
    INDEX 01 03:59:62
  TRACK 121 AUDIO
    TITLE "5:cjc087_6321"
    INDEX 01 04:01:29
  TRACK 122 AUDIO
    TITLE "0:"
    INDEX 01 04:03:42
  TRACK 123 AUDIO
    TITLE "4:cjc087_6322"
    INDEX 01 04:04:43
  TRACK 124 AUDIO
    TITLE "3:cjc087_6323"
    INDEX 01 04:07:22
  TRACK 125 AUDIO
    TITLE "0:"
    INDEX 01 04:10:09
  TRACK 126 AUDIO
    TITLE "4:cjc087_6324"
    INDEX 01 04:11:12
  TRACK 127 AUDIO
    TITLE "3:cjc087_6325"
    INDEX 01 04:13:15
  TRACK 128 AUDIO
    TITLE "0:"
    INDEX 01 04:15:51
  TRACK 129 AUDIO
    TITLE "4:cjc087_6326"
    INDEX 01 04:16:54
  TRACK 130 AUDIO
    TITLE "3:cjc087_6327"
    INDEX 01 04:19:27
  TRACK 131 AUDIO
    TITLE "0:"
    INDEX 01 04:22:29
  TRACK 132 AUDIO
    TITLE "4:cjc087_6328"
    INDEX 01 04:23:35
  TRACK 133 AUDIO
    TITLE "3:cjc087_6329"
    INDEX 01 04:25:22
  TRACK 134 AUDIO
    TITLE "0:"
    INDEX 01 04:27:35
  TRACK 135 AUDIO
    TITLE "4:cjc087_6330"
    INDEX 01 04:28:38
  TRACK 136 AUDIO
    TITLE "3:cjc087_6331"
    INDEX 01 04:31:15
  TRACK 137 AUDIO
    TITLE "0:"
    INDEX 01 04:34:72
  TRACK 138 AUDIO
    TITLE "4:cjc087_6332"
    INDEX 01 04:36:02
  TRACK 139 AUDIO
    TITLE "3:cjc087_6333"
    INDEX 01 04:38:13
  TRACK 140 AUDIO
    TITLE "0:"
    INDEX 01 04:39:65
  TRACK 141 AUDIO
    TITLE "4:cjc087_6334"
    INDEX 01 04:40:71
  TRACK 142 AUDIO
    TITLE "3:cjc087_6335"
    INDEX 01 04:44:00
  TRACK 143 AUDIO
    TITLE "0:"
    INDEX 01 04:48:33
  TRACK 144 AUDIO
    TITLE "5:cjc087_6336"
    INDEX 01 04:49:73
  TRACK 145 AUDIO
    TITLE "0:"
    INDEX 01 04:52:05
  TRACK 146 AUDIO
    TITLE "4:cjc087_6337"
    INDEX 01 04:53:09
  TRACK 147 AUDIO
    TITLE "3:cjc087_6338"
    INDEX 01 04:57:08
  TRACK 148 AUDIO
    TITLE "0:"
    INDEX 01 05:00:42
  TRACK 149 AUDIO
    TITLE "4:cjc087_6339"
    INDEX 01 05:01:49
  TRACK 150 AUDIO
    TITLE "3:cjc087_6340"
    INDEX 01 05:03:32
  TRACK 151 AUDIO
    TITLE "0:"
    INDEX 01 05:05:41
  TRACK 152 AUDIO
    TITLE "4:cjc087_6341"
    INDEX 01 05:06:44
  TRACK 153 AUDIO
    TITLE "3:cjc087_6342"
    INDEX 01 05:08:69
  TRACK 154 AUDIO
    TITLE "0:"
    INDEX 01 05:11:63
  TRACK 155 AUDIO
    TITLE "4:cjc087_6343"
    INDEX 01 05:12:67
  TRACK 156 AUDIO
    TITLE "3:cjc087_6344"
    INDEX 01 05:15:38
  TRACK 157 AUDIO
    TITLE "0:"
    INDEX 01 05:18:50
  TRACK 158 AUDIO
    TITLE "4:cjc087_6345"
    INDEX 01 05:19:55
  TRACK 159 AUDIO
    TITLE "3:cjc087_6346"
    INDEX 01 05:21:60
  TRACK 160 AUDIO
    TITLE "0:"
    INDEX 01 05:24:29
  TRACK 161 AUDIO
    TITLE "4:cjc087_6347"
    INDEX 01 05:25:34
  TRACK 162 AUDIO
    TITLE "3:cjc087_6348"
    INDEX 01 05:27:52
  TRACK 163 AUDIO
    TITLE "0:"
    INDEX 01 05:29:71
  TRACK 164 AUDIO
    TITLE "4:cjc087_6349"
    INDEX 01 05:31:01
  TRACK 165 AUDIO
    TITLE "3:cjc087_6350"
    INDEX 01 05:33:30
  TRACK 166 AUDIO
    TITLE "0:"
    INDEX 01 05:35:56
  TRACK 167 AUDIO
    TITLE "5:cjc087_6351"
    INDEX 01 05:37:23
  TRACK 168 AUDIO
    TITLE "0:"
    INDEX 01 05:39:38
  TRACK 169 AUDIO
    TITLE "3:cjc087_6352"
    INDEX 01 05:40:41
  TRACK 170 AUDIO
    TITLE "4:cjc087_6353"
    INDEX 01 05:42:74
  TRACK 171 AUDIO
    TITLE "0:"
    INDEX 01 05:44:43
  TRACK 172 AUDIO
    TITLE "3:cjc087_6354"
    INDEX 01 05:45:46
  TRACK 173 AUDIO
    TITLE "4:cjc087_6355"
    INDEX 01 05:48:04
  TRACK 174 AUDIO
    TITLE "0:"
    INDEX 01 05:50:32
  TRACK 175 AUDIO
    TITLE "3:cjc087_6356"
    INDEX 01 05:51:37
  TRACK 176 AUDIO
    TITLE "4:cjc087_6357"
    INDEX 01 05:53:32
  TRACK 177 AUDIO
    TITLE "0:"
    INDEX 01 05:54:71
  TRACK 178 AUDIO
    TITLE "3:cjc087_6358"
    INDEX 01 05:56:01
  TRACK 179 AUDIO
    TITLE "4:cjc087_6359"
    INDEX 01 05:57:59
  TRACK 180 AUDIO
    TITLE "0:"
    INDEX 01 05:59:03
  TRACK 181 AUDIO
    TITLE "3:cjc087_6360"
    INDEX 01 06:00:07
  TRACK 182 AUDIO
    TITLE "4:cjc087_6361"
    INDEX 01 06:02:68
  TRACK 183 AUDIO
    TITLE "0:"
    INDEX 01 06:05:06
  TRACK 184 AUDIO
    TITLE "3:cjc087_6362"
    INDEX 01 06:06:09
  TRACK 185 AUDIO
    TITLE "4:cjc087_6363"
    INDEX 01 06:08:46
  TRACK 186 AUDIO
    TITLE "0:"
    INDEX 01 06:10:44
  TRACK 187 AUDIO
    TITLE "3:cjc087_6364"
    INDEX 01 06:11:50
  TRACK 188 AUDIO
    TITLE "4:cjc087_6365"
    INDEX 01 06:14:36
  TRACK 189 AUDIO
    TITLE "0:"
    INDEX 01 06:16:69
  TRACK 190 AUDIO
    TITLE "5:cjc087_6366"
    INDEX 01 06:18:36
  TRACK 191 AUDIO
    TITLE "0:"
    INDEX 01 06:20:47
  TRACK 192 AUDIO
    TITLE "4:cjc087_6367"
    INDEX 01 06:21:50
  TRACK 193 AUDIO
    TITLE "3:cjc087_6368"
    INDEX 01 06:23:67
  TRACK 194 AUDIO
    TITLE "0:"
    INDEX 01 06:26:20
  TRACK 195 AUDIO
    TITLE "4:cjc087_6369"
    INDEX 01 06:27:25
  TRACK 196 AUDIO
    TITLE "3:cjc087_6370"
    INDEX 01 06:29:22
  TRACK 197 AUDIO
    TITLE "0:"
    INDEX 01 06:32:34
  TRACK 198 AUDIO
    TITLE "4:cjc087_6371"
    INDEX 01 06:33:36
  TRACK 199 AUDIO
    TITLE "3:cjc087_6372"
    INDEX 01 06:36:30
  TRACK 200 AUDIO
    TITLE "0:"
    INDEX 01 06:39:44
  TRACK 201 AUDIO
    TITLE "4:cjc087_6373"
    INDEX 01 06:40:49
  TRACK 202 AUDIO
    TITLE "3:cjc087_6374"
    INDEX 01 06:42:60
  TRACK 203 AUDIO
    TITLE "0:"
    INDEX 01 06:45:72
  TRACK 204 AUDIO
    TITLE "4:cjc087_6375"
    INDEX 01 06:47:03
  TRACK 205 AUDIO
    TITLE "3:cjc087_6376"
    INDEX 01 06:49:58
  TRACK 206 AUDIO
    TITLE "0:"
    INDEX 01 06:52:47
  TRACK 207 AUDIO
    TITLE "4:cjc087_6377"
    INDEX 01 06:53:46
  TRACK 208 AUDIO
    TITLE "3:cjc087_6378"
    INDEX 01 06:54:73
  TRACK 209 AUDIO
    TITLE "0:"
    INDEX 01 06:57:15
  TRACK 210 AUDIO
    TITLE "4:cjc087_6379"
    INDEX 01 06:58:20
  TRACK 211 AUDIO
    TITLE "3:cjc087_6380"
    INDEX 01 06:59:68
  TRACK 212 AUDIO
    TITLE "0:"
    INDEX 01 07:01:67
  TRACK 213 AUDIO
    TITLE "5:cjc087_6381"
    INDEX 01 07:03:33
  TRACK 214 AUDIO
    TITLE "0:"
    INDEX 01 07:05:47
  TRACK 215 AUDIO
    TITLE "4:cjc087_6382"
    INDEX 01 07:06:49
  TRACK 216 AUDIO
    TITLE "3:cjc087_6383"
    INDEX 01 07:08:54
  TRACK 217 AUDIO
    TITLE "0:"
    INDEX 01 07:11:62
  TRACK 218 AUDIO
    TITLE "4:cjc087_6384"
    INDEX 01 07:12:65
  TRACK 219 AUDIO
    TITLE "3:cjc087_6385"
    INDEX 01 07:15:34
  TRACK 220 AUDIO
    TITLE "0:"
    INDEX 01 07:18:05
  TRACK 221 AUDIO
    TITLE "4:cjc087_6386"
    INDEX 01 07:19:08
  TRACK 222 AUDIO
    TITLE "3:cjc087_6387"
    INDEX 01 07:21:35
  TRACK 223 AUDIO
    TITLE "0:"
    INDEX 01 07:24:13
  TRACK 224 AUDIO
    TITLE "4:cjc087_6388"
    INDEX 01 07:25:21
  TRACK 225 AUDIO
    TITLE "3:cjc087_6389"
    INDEX 01 07:26:69
  TRACK 226 AUDIO
    TITLE "0:"
    INDEX 01 07:28:50
  TRACK 227 AUDIO
    TITLE "4:cjc087_6390"
    INDEX 01 07:29:54
  TRACK 228 AUDIO
    TITLE "3:cjc087_6391"
    INDEX 01 07:31:68
  TRACK 229 AUDIO
    TITLE "0:"
    INDEX 01 07:34:33
  TRACK 230 AUDIO
    TITLE "4:cjc087_6392"
    INDEX 01 07:35:39
  TRACK 231 AUDIO
    TITLE "3:cjc087_6393"
    INDEX 01 07:37:61
  TRACK 232 AUDIO
    TITLE "0:"
    INDEX 01 07:40:48
  TRACK 233 AUDIO
    TITLE "4:cjc087_6394"
    INDEX 01 07:41:51
  TRACK 234 AUDIO
    TITLE "3:cjc087_6395"
    INDEX 01 07:43:62
  TRACK 235 AUDIO
    TITLE "0:"
    INDEX 01 07:46:56
  TRACK 236 AUDIO
    TITLE "2:cjc087_6396"
    INDEX 01 07:48:20
  TRACK 237 AUDIO
    TITLE "0:"
    INDEX 01 08:11:74
  TRACK 238 AUDIO
    TITLE "5:cjc087_6397"
    INDEX 01 08:13:43
  TRACK 239 AUDIO
    TITLE "0:"
    INDEX 01 08:15:56
  TRACK 240 AUDIO
    TITLE "4:cjc087_6398"
    INDEX 01 08:16:59
  TRACK 241 AUDIO
    TITLE "3:cjc087_6399"
    INDEX 01 08:18:17
  TRACK 242 AUDIO
    TITLE "0:"
    INDEX 01 08:20:39
  TRACK 243 AUDIO
    TITLE "4:cjc087_6400"
    INDEX 01 08:21:45
  TRACK 244 AUDIO
    TITLE "3:cjc087_6401"
    INDEX 01 08:23:42
  TRACK 245 AUDIO
    TITLE "0:"
    INDEX 01 08:25:23
  TRACK 246 AUDIO
    TITLE "4:cjc087_6402"
    INDEX 01 08:26:26
  TRACK 247 AUDIO
    TITLE "3:cjc087_6403"
    INDEX 01 08:28:37
  TRACK 248 AUDIO
    TITLE "0:"
    INDEX 01 08:30:55
  TRACK 249 AUDIO
    TITLE "4:cjc087_6404"
    INDEX 01 08:31:59
  TRACK 250 AUDIO
    TITLE "3:cjc087_6405"
    INDEX 01 08:33:69
  TRACK 251 AUDIO
    TITLE "0:"
    INDEX 01 08:36:25
  TRACK 252 AUDIO
    TITLE "4:cjc087_6406"
    INDEX 01 08:37:28
  TRACK 253 AUDIO
    TITLE "3:cjc087_6407"
    INDEX 01 08:39:54
  TRACK 254 AUDIO
    TITLE "0:"
    INDEX 01 08:42:00
  TRACK 255 AUDIO
    TITLE "4:cjc087_6408"
    INDEX 01 08:43:05
  TRACK 256 AUDIO
    TITLE "3:cjc087_6409"
    INDEX 01 08:44:65
  TRACK 257 AUDIO
    TITLE "0:"
    INDEX 01 08:46:51
  TRACK 258 AUDIO
    TITLE "4:cjc087_6410"
    INDEX 01 08:47:54
  TRACK 259 AUDIO
    TITLE "3:cjc087_6411"
    INDEX 01 08:49:35
  TRACK 260 AUDIO
    TITLE "0:"
    INDEX 01 08:51:38
  TRACK 261 AUDIO
    TITLE "5:cjc087_6412"
    INDEX 01 08:53:06
  TRACK 262 AUDIO
    TITLE "0:"
    INDEX 01 08:55:06
  TRACK 263 AUDIO
    TITLE "3:cjc087_6413"
    INDEX 01 08:56:14
  TRACK 264 AUDIO
    TITLE "4:cjc087_6414"
    INDEX 01 08:58:03
  TRACK 265 AUDIO
    TITLE "0:"
    INDEX 01 08:59:65
  TRACK 266 AUDIO
    TITLE "3:cjc087_6415"
    INDEX 01 09:00:72
  TRACK 267 AUDIO
    TITLE "4:cjc087_6416"
    INDEX 01 09:03:55
  TRACK 268 AUDIO
    TITLE "0:"
    INDEX 01 09:06:24
  TRACK 269 AUDIO
    TITLE "3:cjc087_6417"
    INDEX 01 09:07:27
  TRACK 270 AUDIO
    TITLE "4:cjc087_6418"
    INDEX 01 09:09:44
  TRACK 271 AUDIO
    TITLE "0:"
    INDEX 01 09:11:52
  TRACK 272 AUDIO
    TITLE "3:cjc087_6419"
    INDEX 01 09:12:58
  TRACK 273 AUDIO
    TITLE "4:cjc087_6420"
    INDEX 01 09:15:09
  TRACK 274 AUDIO
    TITLE "0:"
    INDEX 01 09:17:08
  TRACK 275 AUDIO
    TITLE "3:cjc087_6421"
    INDEX 01 09:18:15
  TRACK 276 AUDIO
    TITLE "4:cjc087_6422"
    INDEX 01 09:20:34
  TRACK 277 AUDIO
    TITLE "0:"
    INDEX 01 09:22:56
  TRACK 278 AUDIO
    TITLE "3:cjc087_6423"
    INDEX 01 09:23:60
  TRACK 279 AUDIO
    TITLE "4:cjc087_6424"
    INDEX 01 09:25:49
  TRACK 280 AUDIO
    TITLE "0:"
    INDEX 01 09:27:36
  TRACK 281 AUDIO
    TITLE "3:cjc087_6425"
    INDEX 01 09:28:39
  TRACK 282 AUDIO
    TITLE "4:cjc087_6426"
    INDEX 01 09:30:54
  TRACK 283 AUDIO
    TITLE "0:"
    INDEX 01 09:32:29
  TRACK 284 AUDIO
    TITLE "5:cjc087_6427"
    INDEX 01 09:33:72
  TRACK 285 AUDIO
    TITLE "0:"
    INDEX 01 09:36:17
  TRACK 286 AUDIO
    TITLE "4:cjc087_6428"
    INDEX 01 09:37:19
  TRACK 287 AUDIO
    TITLE "3:cjc087_6429"
    INDEX 01 09:38:71
  TRACK 288 AUDIO
    TITLE "0:"
    INDEX 01 09:43:66
  TRACK 289 AUDIO
    TITLE "4:cjc087_6430"
    INDEX 01 09:44:72
  TRACK 290 AUDIO
    TITLE "3:cjc087_6431"
    INDEX 01 09:47:11
  TRACK 291 AUDIO
    TITLE "0:"
    INDEX 01 09:49:71
  TRACK 292 AUDIO
    TITLE "4:cjc087_6432"
    INDEX 01 09:51:07
  TRACK 293 AUDIO
    TITLE "3:cjc087_6433"
    INDEX 01 09:53:59
  TRACK 294 AUDIO
    TITLE "0:"
    INDEX 01 09:56:43
  TRACK 295 AUDIO
    TITLE "4:cjc087_6434"
    INDEX 01 09:57:47
  TRACK 296 AUDIO
    TITLE "3:cjc087_6435"
    INDEX 01 09:59:40
  TRACK 297 AUDIO
    TITLE "0:"
    INDEX 01 10:01:50
  TRACK 298 AUDIO
    TITLE "4:cjc087_6436"
    INDEX 01 10:02:58
  TRACK 299 AUDIO
    TITLE "3:cjc087_6437"
    INDEX 01 10:04:55
  TRACK 300 AUDIO
    TITLE "0:"
    INDEX 01 10:06:69
  TRACK 301 AUDIO
    TITLE "4:cjc087_6438"
    INDEX 01 10:07:73
  TRACK 302 AUDIO
    TITLE "3:cjc087_6439"
    INDEX 01 10:09:58
  TRACK 303 AUDIO
    TITLE "0:"
    INDEX 01 10:11:57
  TRACK 304 AUDIO
    TITLE "4:cjc087_6440"
    INDEX 01 10:12:64
  TRACK 305 AUDIO
    TITLE "3:cjc087_6441"
    INDEX 01 10:14:22
  TRACK 306 AUDIO
    TITLE "0:"
    INDEX 01 10:15:74
  TRACK 307 AUDIO
    TITLE "5:cjc087_6442"
    INDEX 01 10:17:42
  TRACK 308 AUDIO
    TITLE "0:"
    INDEX 01 10:19:56
  TRACK 309 AUDIO
    TITLE "4:cjc087_6443"
    INDEX 01 10:20:59
  TRACK 310 AUDIO
    TITLE "3:cjc087_6444"
    INDEX 01 10:23:34
  TRACK 311 AUDIO
    TITLE "0:"
    INDEX 01 10:26:21
  TRACK 312 AUDIO
    TITLE "4:cjc087_6445"
    INDEX 01 10:27:26
  TRACK 313 AUDIO
    TITLE "3:cjc087_6446"
    INDEX 01 10:29:39
  TRACK 314 AUDIO
    TITLE "0:"
    INDEX 01 10:31:59
  TRACK 315 AUDIO
    TITLE "4:cjc087_6447"
    INDEX 01 10:32:65
  TRACK 316 AUDIO
    TITLE "3:cjc087_6448"
    INDEX 01 10:34:15
  TRACK 317 AUDIO
    TITLE "0:"
    INDEX 01 10:36:21
  TRACK 318 AUDIO
    TITLE "4:cjc087_6449"
    INDEX 01 10:37:27
  TRACK 319 AUDIO
    TITLE "3:cjc087_6450"
    INDEX 01 10:39:06
  TRACK 320 AUDIO
    TITLE "0:"
    INDEX 01 10:40:52
  TRACK 321 AUDIO
    TITLE "4:cjc087_6451"
    INDEX 01 10:41:56
  TRACK 322 AUDIO
    TITLE "3:cjc087_6452"
    INDEX 01 10:44:03
  TRACK 323 AUDIO
    TITLE "0:"
    INDEX 01 10:46:47
  TRACK 324 AUDIO
    TITLE "4:cjc087_6453"
    INDEX 01 10:47:56
  TRACK 325 AUDIO
    TITLE "3:cjc087_6454"
    INDEX 01 10:49:67
  TRACK 326 AUDIO
    TITLE "0:"
    INDEX 01 10:51:50
  TRACK 327 AUDIO
    TITLE "4:cjc087_6455"
    INDEX 01 10:52:59
  TRACK 328 AUDIO
    TITLE "3:cjc087_6456"
    INDEX 01 10:54:68
  TRACK 329 AUDIO
    TITLE "0:"
    INDEX 01 10:57:23
  TRACK 330 AUDIO
    TITLE "5:cjc087_6457"
    INDEX 01 10:58:74
  TRACK 331 AUDIO
    TITLE "0:"
    INDEX 01 11:01:19
  TRACK 332 AUDIO
    TITLE "4:cjc087_6458"
    INDEX 01 11:02:21
  TRACK 333 AUDIO
    TITLE "3:cjc087_6459"
    INDEX 01 11:03:40
  TRACK 334 AUDIO
    TITLE "0:"
    INDEX 01 11:05:60
  TRACK 335 AUDIO
    TITLE "4:cjc087_6460"
    INDEX 01 11:06:62
  TRACK 336 AUDIO
    TITLE "3:cjc087_6461"
    INDEX 01 11:09:21
  TRACK 337 AUDIO
    TITLE "0:"
    INDEX 01 11:12:37
  TRACK 338 AUDIO
    TITLE "4:cjc087_6462"
    INDEX 01 11:13:40
  TRACK 339 AUDIO
    TITLE "3:cjc087_6463"
    INDEX 01 11:14:53
  TRACK 340 AUDIO
    TITLE "0:"
    INDEX 01 11:16:56
  TRACK 341 AUDIO
    TITLE "4:cjc087_6464"
    INDEX 01 11:17:71
  TRACK 342 AUDIO
    TITLE "3:cjc087_6465"
    INDEX 01 11:20:05
  TRACK 343 AUDIO
    TITLE "0:"
    INDEX 01 11:22:18
  TRACK 344 AUDIO
    TITLE "4:cjc087_6466"
    INDEX 01 11:23:23
  TRACK 345 AUDIO
    TITLE "3:cjc087_6467"
    INDEX 01 11:25:16
  TRACK 346 AUDIO
    TITLE "0:"
    INDEX 01 11:27:15
  TRACK 347 AUDIO
    TITLE "4:cjc087_6468"
    INDEX 01 11:28:18
  TRACK 348 AUDIO
    TITLE "3:cjc087_6469"
    INDEX 01 11:30:23
  TRACK 349 AUDIO
    TITLE "0:"
    INDEX 01 11:33:15
  TRACK 350 AUDIO
    TITLE "4:cjc087_6470"
    INDEX 01 11:34:21
  TRACK 351 AUDIO
    TITLE "3:cjc087_6471"
    INDEX 01 11:35:73
  TRACK 352 AUDIO
    TITLE "0:"
    INDEX 01 11:37:62
  TRACK 353 AUDIO
    TITLE "5:cjc087_6472"
    INDEX 01 11:39:32
  TRACK 354 AUDIO
    TITLE "0:"
    INDEX 01 11:41:50
  TRACK 355 AUDIO
    TITLE "4:cjc087_6473"
    INDEX 01 11:42:55
  TRACK 356 AUDIO
    TITLE "3:cjc087_6474"
    INDEX 01 11:44:37
  TRACK 357 AUDIO
    TITLE "0:"
    INDEX 01 11:46:71
  TRACK 358 AUDIO
    TITLE "4:cjc087_6475"
    INDEX 01 11:48:01
  TRACK 359 AUDIO
    TITLE "3:cjc087_6476"
    INDEX 01 11:49:56
  TRACK 360 AUDIO
    TITLE "0:"
    INDEX 01 11:51:58
  TRACK 361 AUDIO
    TITLE "4:cjc087_6477"
    INDEX 01 11:52:66
  TRACK 362 AUDIO
    TITLE "3:cjc087_6478"
    INDEX 01 11:54:55
  TRACK 363 AUDIO
    TITLE "0:"
    INDEX 01 11:57:08
  TRACK 364 AUDIO
    TITLE "4:cjc087_6479"
    INDEX 01 11:58:11
  TRACK 365 AUDIO
    TITLE "3:cjc087_6480"
    INDEX 01 11:59:27
  TRACK 366 AUDIO
    TITLE "0:"
    INDEX 01 12:01:29
  TRACK 367 AUDIO
    TITLE "4:cjc087_6481"
    INDEX 01 12:02:33
  TRACK 368 AUDIO
    TITLE "3:cjc087_6482"
    INDEX 01 12:03:50
  TRACK 369 AUDIO
    TITLE "0:"
    INDEX 01 12:05:39
  TRACK 370 AUDIO
    TITLE "4:cjc087_6483"
    INDEX 01 12:06:42
  TRACK 371 AUDIO
    TITLE "3:cjc087_6484"
    INDEX 01 12:09:07
  TRACK 372 AUDIO
    TITLE "0:"
    INDEX 01 12:11:36
  TRACK 373 AUDIO
    TITLE "4:cjc087_6485"
    INDEX 01 12:12:39
  TRACK 374 AUDIO
    TITLE "3:cjc087_6486"
    INDEX 01 12:15:02
  TRACK 375 AUDIO
    TITLE "0:"
    INDEX 01 12:17:38
  TRACK 376 AUDIO
    TITLE "2:cjc087_6487"
    INDEX 01 12:19:06
  TRACK 377 AUDIO
    TITLE "0:"
    INDEX 01 12:41:45
  TRACK 378 AUDIO
    TITLE "5:cjc087_6488"
    INDEX 01 12:43:14
  TRACK 379 AUDIO
    TITLE "0:"
    INDEX 01 12:45:31
  TRACK 380 AUDIO
    TITLE "4:cjc087_6489"
    INDEX 01 12:46:32
  TRACK 381 AUDIO
    TITLE "3:cjc087_6490"
    INDEX 01 12:50:00
  TRACK 382 AUDIO
    TITLE "0:"
    INDEX 01 12:53:44
  TRACK 383 AUDIO
    TITLE "4:cjc087_6491"
    INDEX 01 12:54:49
  TRACK 384 AUDIO
    TITLE "3:cjc087_6492"
    INDEX 01 12:57:28
  TRACK 385 AUDIO
    TITLE "0:"
    INDEX 01 12:59:33
  TRACK 386 AUDIO
    TITLE "4:cjc087_6493"
    INDEX 01 13:00:36
  TRACK 387 AUDIO
    TITLE "3:cjc087_6494"
    INDEX 01 13:03:13
  TRACK 388 AUDIO
    TITLE "0:"
    INDEX 01 13:06:11
  TRACK 389 AUDIO
    TITLE "4:cjc087_6495"
    INDEX 01 13:07:15
  TRACK 390 AUDIO
    TITLE "3:cjc087_6496"
    INDEX 01 13:10:15
  TRACK 391 AUDIO
    TITLE "0:"
    INDEX 01 13:14:01
  TRACK 392 AUDIO
    TITLE "4:cjc087_6497"
    INDEX 01 13:15:06
  TRACK 393 AUDIO
    TITLE "3:cjc087_6498"
    INDEX 01 13:17:01
  TRACK 394 AUDIO
    TITLE "0:"
    INDEX 01 13:19:26
  TRACK 395 AUDIO
    TITLE "4:cjc087_6499"
    INDEX 01 13:20:25
  TRACK 396 AUDIO
    TITLE "3:cjc087_6500"
    INDEX 01 13:22:59
  TRACK 397 AUDIO
    TITLE "0:"
    INDEX 01 13:25:30
  TRACK 398 AUDIO
    TITLE "4:cjc087_6501"
    INDEX 01 13:26:33
  TRACK 399 AUDIO
    TITLE "3:cjc087_6502"
    INDEX 01 13:28:38
  TRACK 400 AUDIO
    TITLE "0:"
    INDEX 01 13:30:23
  TRACK 401 AUDIO
    TITLE "5:cjc087_6503"
    INDEX 01 13:31:64
  TRACK 402 AUDIO
    TITLE "0:"
    INDEX 01 13:34:11
  TRACK 403 AUDIO
    TITLE "4:cjc087_6504"
    INDEX 01 13:35:17
  TRACK 404 AUDIO
    TITLE "3:cjc087_6505"
    INDEX 01 13:37:16
  TRACK 405 AUDIO
    TITLE "0:"
    INDEX 01 13:39:36
  TRACK 406 AUDIO
    TITLE "4:cjc087_6506"
    INDEX 01 13:40:37
  TRACK 407 AUDIO
    TITLE "3:cjc087_6507"
    INDEX 01 13:43:26
  TRACK 408 AUDIO
    TITLE "0:"
    INDEX 01 13:45:70
  TRACK 409 AUDIO
    TITLE "4:cjc087_6508"
    INDEX 01 13:46:73
  TRACK 410 AUDIO
    TITLE "3:cjc087_6509"
    INDEX 01 13:49:23
  TRACK 411 AUDIO
    TITLE "0:"
    INDEX 01 13:52:11
  TRACK 412 AUDIO
    TITLE "4:cjc087_6510"
    INDEX 01 13:53:19
  TRACK 413 AUDIO
    TITLE "3:cjc087_6511"
    INDEX 01 13:55:19
  TRACK 414 AUDIO
    TITLE "0:"
    INDEX 01 13:57:30
  TRACK 415 AUDIO
    TITLE "4:cjc087_6512"
    INDEX 01 13:58:33
  TRACK 416 AUDIO
    TITLE "3:cjc087_6513"
    INDEX 01 13:59:74
  TRACK 417 AUDIO
    TITLE "0:"
    INDEX 01 14:02:21
  TRACK 418 AUDIO
    TITLE "4:cjc087_6514"
    INDEX 01 14:03:27
  TRACK 419 AUDIO
    TITLE "3:cjc087_6515"
    INDEX 01 14:05:32
  TRACK 420 AUDIO
    TITLE "0:"
    INDEX 01 14:07:50
  TRACK 421 AUDIO
    TITLE "4:cjc087_6516"
    INDEX 01 14:08:55
  TRACK 422 AUDIO
    TITLE "3:cjc087_6517"
    INDEX 01 14:10:72
  TRACK 423 AUDIO
    TITLE "0:"
    INDEX 01 14:17:35
  TRACK 424 AUDIO
    TITLE "5:cjc087_6518"
    INDEX 01 14:19:02
  TRACK 425 AUDIO
    TITLE "0:"
    INDEX 01 14:21:17
  TRACK 426 AUDIO
    TITLE "4:cjc087_6519"
    INDEX 01 14:22:18
  TRACK 427 AUDIO
    TITLE "3:cjc087_6520"
    INDEX 01 14:25:05
  TRACK 428 AUDIO
    TITLE "0:"
    INDEX 01 14:27:57
  TRACK 429 AUDIO
    TITLE "4:cjc087_6521"
    INDEX 01 14:28:62
  TRACK 430 AUDIO
    TITLE "3:cjc087_6522"
    INDEX 01 14:31:27
  TRACK 431 AUDIO
    TITLE "0:"
    INDEX 01 14:34:02
  TRACK 432 AUDIO
    TITLE "4:cjc087_6523"
    INDEX 01 14:35:05
  TRACK 433 AUDIO
    TITLE "3:cjc087_6524"
    INDEX 01 14:37:33
  TRACK 434 AUDIO
    TITLE "0:"
    INDEX 01 14:40:06
  TRACK 435 AUDIO
    TITLE "4:cjc087_6525"
    INDEX 01 14:41:12
  TRACK 436 AUDIO
    TITLE "3:cjc087_6526"
    INDEX 01 14:42:72
  TRACK 437 AUDIO
    TITLE "0:"
    INDEX 01 14:45:09
  TRACK 438 AUDIO
    TITLE "4:cjc087_6527"
    INDEX 01 14:46:15
  TRACK 439 AUDIO
    TITLE "3:cjc087_6528"
    INDEX 01 14:47:63
  TRACK 440 AUDIO
    TITLE "0:"
    INDEX 01 14:49:74
  TRACK 441 AUDIO
    TITLE "4:cjc087_6529"
    INDEX 01 14:51:02
  TRACK 442 AUDIO
    TITLE "3:cjc087_6530"
    INDEX 01 14:53:17
  TRACK 443 AUDIO
    TITLE "0:"
    INDEX 01 14:56:03
  TRACK 444 AUDIO
    TITLE "4:cjc087_6531"
    INDEX 01 14:57:07
  TRACK 445 AUDIO
    TITLE "3:cjc087_6532"
    INDEX 01 14:59:23
  TRACK 446 AUDIO
    TITLE "0:"
    INDEX 01 15:02:06
  TRACK 447 AUDIO
    TITLE "5:cjc087_6533"
    INDEX 01 15:03:51
  TRACK 448 AUDIO
    TITLE "0:"
    INDEX 01 15:05:71
  TRACK 449 AUDIO
    TITLE "4:cjc087_6534"
    INDEX 01 15:06:72
  TRACK 450 AUDIO
    TITLE "3:cjc087_6535"
    INDEX 01 15:09:08
  TRACK 451 AUDIO
    TITLE "0:"
    INDEX 01 15:11:19
  TRACK 452 AUDIO
    TITLE "4:cjc087_6536"
    INDEX 01 15:12:20
  TRACK 453 AUDIO
    TITLE "3:cjc087_6537"
    INDEX 01 15:13:53
  TRACK 454 AUDIO
    TITLE "0:"
    INDEX 01 15:17:51
  TRACK 455 AUDIO
    TITLE "4:cjc087_6538"
    INDEX 01 15:18:54
  TRACK 456 AUDIO
    TITLE "3:cjc087_6539"
    INDEX 01 15:21:41
  TRACK 457 AUDIO
    TITLE "0:"
    INDEX 01 15:24:29
  TRACK 458 AUDIO
    TITLE "4:cjc087_6540"
    INDEX 01 15:25:33
  TRACK 459 AUDIO
    TITLE "3:cjc087_6541"
    INDEX 01 15:27:14
  TRACK 460 AUDIO
    TITLE "0:"
    INDEX 01 15:29:38
  TRACK 461 AUDIO
    TITLE "4:cjc087_6542"
    INDEX 01 15:30:40
  TRACK 462 AUDIO
    TITLE "3:cjc087_6543"
    INDEX 01 15:33:65
  TRACK 463 AUDIO
    TITLE "0:"
    INDEX 01 15:38:12
  TRACK 464 AUDIO
    TITLE "4:cjc087_6544"
    INDEX 01 15:39:15
  TRACK 465 AUDIO
    TITLE "3:cjc087_6545"
    INDEX 01 15:40:38
  TRACK 466 AUDIO
    TITLE "0:"
    INDEX 01 15:42:37
  TRACK 467 AUDIO
    TITLE "5:cjc087_6546"
    INDEX 01 15:44:04
  TRACK 468 AUDIO
    TITLE "0:"
    INDEX 01 15:46:25
  TRACK 469 AUDIO
    TITLE "4:cjc087_6547"
    INDEX 01 15:47:28
  TRACK 470 AUDIO
    TITLE "3:cjc087_6548"
    INDEX 01 15:49:53
  TRACK 471 AUDIO
    TITLE "0:"
    INDEX 01 15:52:18
  TRACK 472 AUDIO
    TITLE "4:cjc087_6549"
    INDEX 01 15:53:23
  TRACK 473 AUDIO
    TITLE "3:cjc087_6550"
    INDEX 01 15:54:32
  TRACK 474 AUDIO
    TITLE "0:"
    INDEX 01 15:56:17
  TRACK 475 AUDIO
    TITLE "4:cjc087_6551"
    INDEX 01 15:57:34
  TRACK 476 AUDIO
    TITLE "3:cjc087_6552"
    INDEX 01 15:59:27
  TRACK 477 AUDIO
    TITLE "0:"
    INDEX 01 16:01:38
  TRACK 478 AUDIO
    TITLE "4:cjc087_6553"
    INDEX 01 16:02:45
  TRACK 479 AUDIO
    TITLE "3:cjc087_6554"
    INDEX 01 16:05:12
  TRACK 480 AUDIO
    TITLE "0:"
    INDEX 01 16:08:26
  TRACK 481 AUDIO
    TITLE "4:cjc087_6555"
    INDEX 01 16:09:34
  TRACK 482 AUDIO
    TITLE "3:cjc087_6556"
    INDEX 01 16:11:05
  TRACK 483 AUDIO
    TITLE "0:"
    INDEX 01 16:12:48
  TRACK 484 AUDIO
    TITLE "4:cjc087_6557"
    INDEX 01 16:13:53
  TRACK 485 AUDIO
    TITLE "3:cjc087_6558"
    INDEX 01 16:15:52
  TRACK 486 AUDIO
    TITLE "0:"
    INDEX 01 16:17:45
  TRACK 487 AUDIO
    TITLE "5:cjc087_6559"
    INDEX 01 16:19:11
  TRACK 488 AUDIO
    TITLE "0:"
    INDEX 01 16:21:06
  TRACK 489 AUDIO
    TITLE "4:cjc087_6560"
    INDEX 01 16:22:07
  TRACK 490 AUDIO
    TITLE "3:cjc087_6561"
    INDEX 01 16:23:26
  TRACK 491 AUDIO
    TITLE "0:"
    INDEX 01 16:24:69
  TRACK 492 AUDIO
    TITLE "4:cjc087_6562"
    INDEX 01 16:25:74
  TRACK 493 AUDIO
    TITLE "3:cjc087_6563"
    INDEX 01 16:28:00
  TRACK 494 AUDIO
    TITLE "0:"
    INDEX 01 16:29:62
  TRACK 495 AUDIO
    TITLE "4:cjc087_6564"
    INDEX 01 16:30:63
  TRACK 496 AUDIO
    TITLE "3:cjc087_6565"
    INDEX 01 16:32:62
  TRACK 497 AUDIO
    TITLE "0:"
    INDEX 01 16:35:00
  TRACK 498 AUDIO
    TITLE "4:cjc087_6566"
    INDEX 01 16:36:03
  TRACK 499 AUDIO
    TITLE "3:cjc087_6567"
    INDEX 01 16:38:26
  TRACK 500 AUDIO
    TITLE "0:"
    INDEX 01 16:41:08
  TRACK 501 AUDIO
    TITLE "4:cjc087_6568"
    INDEX 01 16:42:14
  TRACK 502 AUDIO
    TITLE "3:cjc087_6569"
    INDEX 01 16:44:09
  TRACK 503 AUDIO
    TITLE "0:"
    INDEX 01 16:46:62
  TRACK 504 AUDIO
    TITLE "4:cjc087_6570"
    INDEX 01 16:47:70
  TRACK 505 AUDIO
    TITLE "3:cjc087_6571"
    INDEX 01 16:50:27
  TRACK 506 AUDIO
    TITLE "0:"
    INDEX 01 16:52:65
  TRACK 507 AUDIO
    TITLE "4:cjc087_6572"
    INDEX 01 16:53:68
  TRACK 508 AUDIO
    TITLE "3:cjc087_6573"
    INDEX 01 16:56:04
  TRACK 509 AUDIO
    TITLE "0:"
    INDEX 01 16:58:09
  TRACK 510 AUDIO
    TITLE "2:cjc087_6574"
    INDEX 01 16:59:49
  TRACK 511 AUDIO
    TITLE "0:"
    INDEX 01 17:25:27
